<svg xmlns="http://www.w3.org/2000/svg" xmlns:xlink="http://www.w3.org/1999/xlink" width="1080" zoomAndPan="magnify" viewBox="0 0 810 809.999993" height="1080" preserveAspectRatio="xMidYMid meet" version="1.0"><defs><g/><clipPath id="ea8cc44cbd"><rect x="0" width="810" y="0" height="627"/></clipPath></defs><g transform="matrix(1, 0, 0, 1, 0, 93)"><g clip-path="url(#ea8cc44cbd)"><g fill="#38b6ff" fill-opacity="1"><g transform="translate(0.0000035, 500.882191)"><g><path d="M 22 0 L 120.015625 -360.0625 L 183.03125 -360.0625 L 278.046875 0 L 230.046875 0 L 205.03125 -101.515625 L 94.515625 -101.515625 L 69.015625 0 Z M 104.015625 -139.03125 L 196.03125 -139.03125 L 161.03125 -281.546875 C 159.363281 -288.554688 157.863281 -294.976562 156.53125 -300.8125 C 155.195312 -306.644531 154.195312 -311.894531 153.53125 -316.5625 C 152.863281 -321.5625 152.195312 -326.0625 151.53125 -330.0625 L 149.53125 -330.0625 C 148.863281 -326.0625 148.03125 -321.5625 147.03125 -316.5625 C 146.363281 -311.894531 145.363281 -306.644531 144.03125 -300.8125 C 142.695312 -294.976562 141.195312 -288.554688 139.53125 -281.546875 Z M 104.015625 -139.03125 "/></g></g></g><g fill="#38b6ff" fill-opacity="1"><g transform="translate(300.059989, 500.882191)"><g><path d="M 45.015625 -360.0625 L 90.015625 -360.0625 L 90.015625 -207.03125 L 147.53125 -207.03125 L 229.546875 -360.0625 L 282.546875 -360.0625 L 187.03125 -189.03125 L 287.546875 0 L 234.046875 0 L 147.53125 -167.53125 L 90.015625 -167.53125 L 90.015625 0 L 45.015625 0 Z M 45.015625 -360.0625 "/></g></g></g><g fill="#38b6ff" fill-opacity="1"><g transform="translate(600.119975, 500.882191)"><g><path d="M 107.015625 -39.5 C 107.015625 -52.507812 110.929688 -62.929688 118.765625 -70.765625 C 126.609375 -78.597656 137.03125 -82.515625 150.03125 -82.515625 C 163.03125 -82.515625 173.445312 -78.597656 181.28125 -70.765625 C 189.113281 -62.929688 193.03125 -52.507812 193.03125 -39.5 C 193.03125 -26.164062 189.113281 -15.414062 181.28125 -7.25 C 173.445312 0.914062 163.03125 5 150.03125 5 C 137.03125 5 126.609375 0.914062 118.765625 -7.25 C 110.929688 -15.414062 107.015625 -26.164062 107.015625 -39.5 Z M 107.015625 -39.5 "/></g></g></g></g></g></svg>